<?xml version="1.0" encoding="utf-8"?>
<svg version="1.1" id="Layer_1" x="0px" y="0px" viewBox="0 0 512 512" xmlns="http://www.w3.org/2000/svg" xmlns:xlink="http://www.w3.org/1999/xlink">
  <style type="text/css">
	.st0{fill:#EB0A1E;}
	.st1{fill:#FFFFFF;}
  </style>
  <g transform="translate(144,144) scale(1.68)">
    <rect class="st0" x="74.7" y="74.7" width="224" height="224"/>
    <path class="st1" d="M224,137.8c-10.4-3.3-23.3-5.3-37.4-5.3c-14,0-27,2-37.4,5.3c-27.6,8.9-46.6,27.3-46.6,48.7
    c0,30,37.6,54.3,84,54.3c46.4,0,84-24.3,84-54.3C270.7,165.2,251.7,146.7,224,137.8
    M186.7,217.5c-6.9,0-12.6-13.6-12.9-30.7c4.2,0.4,8.5,0.6,12.9,0.6c4.4,0,8.7-0.2,12.9-0.6C199.2,203.9,193.6,217.5,186.7,217.5
    M174.6,173.4c1.9-12,6.6-20.5,12-20.5c5.5,0,10.1,8.5,12,20.5c-3.8,0.3-7.9,0.5-12,0.5C182.5,173.9,178.5,173.7,174.6,173.4
    M206.1,172.5c-2.8-18.8-10.4-32.4-19.4-32.4c-9,0-16.6,13.5-19.4,32.4c-17.1-2.7-29-8.7-29-15.8c0-9.5,21.7-17.2,48.4-17.2c26.7,0,48.4,7.7,48.4,17.2
    C235,163.7,223.1,169.8,206.1,172.5
    M114.9,184.5c0-9.2,3.5-17.8,9.7-25.2c-0.1,0.5-0.1,1-0.1,1.6c0,11.6,17.4,21.4,41.6,25
    c0,0.9,0,1.8,0,2.6c0,21.5,6,39.7,14.2,46C143.7,232.3,114.9,210.7,114.9,184.5
    M193,234.5c8.2-6.3,14.2-24.5,14.2-46c0-0.9,0-1.8,0-2.6c24.2-3.6,41.6-13.5,41.6-25c0-0.5,0-1-0.1-1.6c6.2,7.4,9.7,16,9.7,25.2C258.4,210.7,229.6,232.3,193,234.5"/>
  </g>
</svg>